<?xml version="1.0" standalone="no"?>
<!DOCTYPE svg PUBLIC "-//W3C//DTD SVG 20010904//EN"
 "http://www.w3.org/TR/2001/REC-SVG-20010904/DTD/svg10.dtd">
<svg version="1.0" xmlns="http://www.w3.org/2000/svg"
 width="124.000000pt" height="979.000000pt" viewBox="0 0 124.000000 979.000000"
 preserveAspectRatio="xMidYMid meet">
<metadata>
Created by potrace 1.15, written by Peter Selinger 2001-2017
</metadata>
<g transform="translate(0.000000,979.000000) scale(0.100000,-0.100000)"
fill="#000000" stroke="none">
<path d="M611 7325 c-9 -323 -78 -1128 -117 -1360 -34 -205 -88 -379 -175
-564 -68 -144 -89 -218 -96 -337 -5 -82 -2 -112 13 -160 34 -110 138 -188 277
-209 l47 -7 0 -57 c0 -31 -5 -209 -10 -396 -5 -187 -19 -689 -30 -1115 -11
-426 -27 -1020 -35 -1320 -8 -300 -15 -553 -15 -562 0 -11 -19 -23 -63 -37
-135 -45 -276 -170 -341 -303 -55 -111 -69 -183 -64 -313 4 -93 10 -122 36
-190 63 -160 196 -293 357 -357 76 -31 87 -32 215 -33 116 0 145 3 202 23 128
44 239 131 317 247 67 101 92 177 98 302 7 130 -7 204 -59 313 -33 69 -56 100
-122 165 -46 46 -103 91 -132 105 l-52 25 -6 120 c-3 66 -22 737 -42 1490 -19
754 -38 1488 -42 1633 -4 144 -5 267 -4 272 2 6 11 10 20 10 30 0 118 58 155
100 53 63 71 133 64 254 -7 121 -22 174 -93 329 -61 134 -115 283 -143 396
-53 211 -100 655 -136 1271 -15 257 -22 337 -24 265z m112 -6460 c56 -23 112
-79 136 -136 25 -56 30 -154 11 -204 -34 -92 -122 -163 -213 -172 -122 -12
-209 26 -269 120 -29 45 -33 62 -36 128 -3 61 0 85 18 128 57 131 217 193 353
136z"/>
</g>
</svg>
