<?xml version="1.0" standalone="no"?>
<!DOCTYPE svg PUBLIC "-//W3C//DTD SVG 20010904//EN"
 "http://www.w3.org/TR/2001/REC-SVG-20010904/DTD/svg10.dtd">
<svg version="1.0" xmlns="http://www.w3.org/2000/svg"
 width="102.000000pt" height="970.000000pt" viewBox="0 0 102.000000 970.000000"
 preserveAspectRatio="xMidYMid meet">
<metadata>
Created by potrace 1.15, written by Peter Selinger 2001-2017
</metadata>
<g transform="translate(0.000000,970.000000) scale(0.100000,-0.100000)"
fill="#000000" stroke="none">
<path d="M452 9192 c-17 -681 -35 -1104 -67 -1582 -33 -474 -61 -692 -132
-1000 -43 -186 -48 -216 -48 -330 0 -108 4 -133 24 -184 29 -74 79 -129 136
-153 45 -18 45 -18 45 -68 0 -85 -129 -4622 -136 -4762 l-6 -132 -49 -32
c-211 -135 -282 -437 -158 -670 44 -83 141 -171 235 -216 70 -34 86 -37 185
-41 89 -4 119 -1 177 17 189 57 327 222 354 423 20 152 -27 299 -134 413 -31
33 -86 78 -122 99 l-66 39 0 76 c0 80 -126 4548 -133 4734 l-5 108 32 13 c18
7 51 35 74 61 88 100 107 260 58 480 -97 429 -120 591 -156 1085 -32 453 -52
936 -76 1883 -3 136 -9 247 -13 247 -4 0 -13 -229 -19 -508z m118 -8439 c55
-32 62 -60 58 -241 l-3 -164 -32 -28 c-60 -54 -147 -46 -190 18 -25 38 -32
300 -9 355 28 67 114 97 176 60z"/>
</g>
</svg>
