<?xml version="1.0" standalone="no"?>
<!DOCTYPE svg PUBLIC "-//W3C//DTD SVG 20010904//EN"
 "http://www.w3.org/TR/2001/REC-SVG-20010904/DTD/svg10.dtd">
<svg version="1.0" xmlns="http://www.w3.org/2000/svg"
 width="553.000000pt" height="553.000000pt" viewBox="0 0 553.000000 553.000000"
 preserveAspectRatio="xMidYMid meet">
<metadata>
Created by potrace 1.15, written by Peter Selinger 2001-2017
</metadata>
<g transform="translate(0.000000,553.000000) scale(0.100000,-0.100000)"
fill="#000000" stroke="none">
<path d="M2697 3850 c-41 -680 -63 -974 -75 -1023 -15 -63 -15 -71 1 -120 9
-29 19 -104 22 -172 8 -173 13 -202 36 -208 17 -5 19 -15 19 -89 0 -45 7 -254
15 -463 8 -209 15 -410 15 -447 l0 -67 -40 -12 c-89 -27 -170 -135 -170 -228
0 -66 19 -117 64 -168 52 -60 104 -83 185 -83 143 0 244 101 244 245 1 107
-73 206 -175 237 -21 6 -38 16 -38 22 0 6 7 214 15 461 8 248 15 483 15 523 0
64 2 72 19 72 17 0 20 11 26 98 5 86 13 167 31 325 4 26 1 60 -5 75 -6 15 -38
439 -71 942 -33 503 -63 942 -68 975 -5 44 -23 -198 -65 -895z m123 -986 c55
-33 74 -97 45 -154 -21 -42 -53 -60 -103 -60 -37 0 -50 6 -78 34 -29 29 -34
41 -34 79 0 92 92 147 170 101z m19 -1699 c121 -62 126 -243 7 -299 -77 -37
-168 -13 -220 57 -33 44 -30 142 6 189 15 19 42 42 60 51 41 21 110 22 147 2z"/>
</g>
</svg>
